<svg height="0" width="0" aria-hidden="true" xmlns="http://www.w3.org/2000/svg">
  <metadata>
    <rdf:RDF xmlns:rdf="http://www.w3.org/1999/02/22-rdf-syntax-ns" xmlns:schema="http://schema.org/">
      <rdf:Description rdf:about="">
        <schema:license rdf:resource="https://creativecommons.org/licenses/by-sa/4.0/"/>
        <schema:url rdf:resource="https://github.com/fontello/entypo"/>
        <schema:author rdf:resource="Daniel Bruce"/>
      </rdf:Description>
    </rdf:RDF>
  </metadata>
  <defs>
    <symbol viewBox="0 0  981 1000" id="archive"><path d="M839.882 250l0 50l-696 0l0 -50q0 -22 13 -35t25 -15l608 0q6 0 14 1t22 14 14 35zm-148 -150q6 0 14 1t22 14 14 35l-498 0q0 -22 13 -35t25 -15l410 0zm248 200q34 32 38 46 6 18 0 54l-76 450q-4 22 -20 35t-28 15l-710 0q-52 0 -60 -50 -6 -26 -39 -223t-39 -227q-10 -22 -3 -44t10 -26 21 -20l10 -10 30 -30l0 80l836 0l0 -80zm-248 270l0 -100l-70 0l0 80l-260 0l0 -80l-68 0l0 100q0 50 48 50l300 0q22 0 35 -12t13 -24z"></path></symbol>
    <symbol viewBox="0 0 1000  900" id="book-open"><path d="M340 612c0 0 0 68 0 68c0 0 -200 -80 -200 -80c0 0 0 -68 0 -68c0 0 200 80 200 80m0 -208c0 0 0 68 0 68c0 0 -200 -80 -200 -80c0 0 0 -68 0 -68c0 0 200 80 200 80m538 -346c14.667 8 22 22 22 42c0 0 0 640 0 640c0 22.667 -10.667 38 -32 46c0 0 -398 160 -398 160c-5.333 1.333 -8.667 2 -10 2c-1.333 0 -3 0.333 -5 1c-2 0.667 -3.667 1 -5 1c-1.333 0 -3 -0.333 -5 -1c-2 -0.667 -3.667 -1 -5 -1c0 0 -10 -2 -10 -2c0 0 -398 -160 -398 -160c-21.333 -8 -32 -23.333 -32 -46c0 0 0 -640 0 -640c0 -20 7.333 -34 22 -42c14.667 -10.667 30 -12.667 46 -6c0 0 382 154 382 154c0 0 382 -154 382 -154c16 -6.667 31.333 -4.667 46 6c0 0 0 0 0 0m-478 788c0 0 0 -560 0 -560c0 0 -320 -128 -320 -128c0 0 0 560 0 560c0 0 320 128 320 128m420 -128c0 0 0 -560 0 -560c0 0 -320 128 -320 128c0 0 0 560 0 560c0 0 320 -128 320 -128m-60 -186c0 0 0 68 0 68c0 0 -200 80 -200 80c0 0 0 -68 0 -68c0 0 200 -80 200 -80m0 -208c0 0 0 68 0 68c0 0 -200 80 -200 80c0 0 0 -68 0 -68c0 0 200 -80 200 -80"/></symbol>
    <symbol viewBox="0 0 1000 1000" id="briefcase"><path d="M456 524l0 100l-456 0q8 -226 10 -292 4 -108 100 -108l160 0q16 -26 37 -67t23 -45q14 -26 23 -32t37 -6l222 0q26 0 36 7t22 31q18 32 60 112l160 0q96 0 100 108l10 292l-454 0l0 -100l-90 0zm-74 -354l-28 54l292 0l-28 -54q-14 -26 -42 -26l-152 0q-28 0 -42 26zm164 604l0 -100l430 0q-6 88 -10 166 -6 84 -90 84l-750 0q-90 0 -90 -84l-10 -166l430 0l0 100l90 0z"></path></symbol>
    <symbol viewBox="0 0  667 1000" id="check"><path d="M248.8 850q-34 0 -56 -28l-180 -236q-16 -24 -12 -52t26 -46 51 -14 47 28l118 154 296 -474q16 -24 43 -30t53 8q24 16 30 43t-8 53l-350 560q-20 32 -56 32z"/></symbol>
    <symbol viewBox="0 0  860 1000" id="facebook-squared"><path d="M752 80q44 0 76 31t32 75l0 646q0 44 -32 76t-76 32l-162 0l0 -310l114 0l0 -134l-114 0l0 -70q0 -30 28 -30l86 0l0 -152l-96 0q-74 0 -124 54t-50 132l0 66l-104 0l0 134l104 0l0 310l-326 0q-44 0 -76 -32t-32 -76l0 -646q0 -44 32 -75t76 -31l644 0z"/></symbol>
    <symbol viewBox="0 0  920 1000" id="github"><path d="M620 564q26 0 45 26t19 64 -19 64 -45 26q-28 0 -47 -26t-19 -64 19 -64 47 -26zm226 -234q74 80 74 194 0 74 -17 133t-43 96 -64 65 -70 41 -73 20 -62 8 -45 1q-6 0 -36 1t-50 1 -50 -1 -36 -1q-24 0 -45 -1t-62 -8 -73 -20 -70 -41 -64 -65 -43 -96 -17 -133q0 -114 74 -194 -8 -4 -1 -80t33 -140q92 10 228 104 46 -12 126 -12 84 0 126 12 62 -42 119 -68t83 -30l26 -6q26 64 33 140t-1 80zm-384 514q166 0 251 -40t85 -164q0 -72 -54 -120 -28 -26 -65 -32t-113 0 -104 6l-4 0q-32 0 -83 -4t-80 -5 -63 7 -56 28q-52 46 -52 120 0 124 84 164t250 40l4 0zm-160 -280q26 0 45 26t19 64 -19 64 -45 26q-28 0 -47 -26t-19 -64 19 -64 47 -26z"></path></symbol>
    <symbol viewBox="0 0  960 1000" id="globe"><path d="M480 20q200 0 340 141t140 339q0 200 -140 340t-340 140q-198 0 -339 -140t-141 -340q0 -198 141 -339t339 -141zm410 480q0 -132 -78 -239t-202 -149q-18 24 -16 32 4 38 18 51t30 7l32 -12t20 -2q22 24 0 47t-45 56 -1 77q34 64 96 64 28 2 43 36t17 66q10 80 -14 140 -22 44 14 76 86 -112 86 -250zm-466 -404q-112 14 -199 84t-127 174q6 0 22 2t28 3 26 4 24 8 12 13q4 12 -14 45t-18 61q0 30 38 56t38 46q0 28 8 68t8 44q0 12 36 54t52 42q10 0 11 -22t-2 -54 -3 -40q0 -32 14 -74 12 -42 59 -70t55 -46q16 -34 9 -61t-17 -43 -34 -28 -41 -17 -37 -9 -22 -4q-16 -6 -42 -7t-36 3 -27 -11 -17 -29q0 -10 15 -27t35 -37 28 -30q8 -14 17 -21t22 -16 27 -21q4 -4 25 -17t27 -23zm-72 794q66 20 128 20 128 0 226 -68 -26 -44 -118 -34 -24 2 -65 17t-47 17q-74 16 -76 16 -12 2 -26 14t-22 18z"></path></symbol>
    <symbol viewBox="0 0 1000 1000" id="graduation-cap"><path d="M166 612l334 168 276 -136q-4 22 -8 47t-6 35 -11 23 -24 23 -45 22q-40 18 -80 41t-63 34 -39 11 -40 -13 -64 -37 -80 -40q-72 -32 -103 -69t-47 -109zm810 -246q24 14 24 33t-24 33l-78 44 -308 -102q-22 -36 -90 -36 -40 0 -67 16t-27 40 27 40 67 16q26 0 36 -4l292 68 -268 152q-60 32 -120 0l-416 -234q-24 -14 -24 -33t24 -33l416 -234q60 -32 120 0zm-128 442q18 -116 13 -182t-19 -90l-14 -22 70 -38q6 8 12 28t17 101 -7 197q-4 26 -22 30t-35 -5 -15 -19z"></path></symbol>
    <symbol viewBox="0 0  860 1000" id="heart"><path d="M790 206q70 64 70 156t-70 158l-360 330 -360 -330q-70 -66 -70 -158t70 -156q62 -58 151 -58t153 58l56 52 58 -52q62 -58 150 -58t152 58z"/></symbol>
    <symbol viewBox="0 0 1000 1000" id="language"><path d="M988 544q30 82 -10 176t-134 160q-10 0 -12 -2t-16 -19 -16 -19q-2 -6 2 -10 86 -60 117 -152t-11 -148q-16 38 -39 76t-59 80 -86 65 -106 15q-52 -6 -84 -41t-32 -93q0 -84 60 -148 50 -50 114 -66l-2 -100q-140 24 -146 24 -6 2 -10 -4 0 -2 -5 -29t-5 -31q-2 -2 1 -4t7 -2l156 -28q0 -110 -2 -114 0 -8 8 -8 46 0 52 -2 10 0 10 8l0 104q158 -22 164 -22 8 -4 10 6 0 2 4 23t4 25q4 10 -4 12l-176 30l0 102l12 0q86 0 148 36t86 100zm-370 160q28 6 62 -6l-4 -214q-34 12 -60 40 -44 44 -44 108 0 66 46 72zm122 -28q28 -24 58 -68t45 -79 7 -41q-36 -18 -96 -18 -2 0 -6 1t-6 1zm-448 -382q10 28 53 165t83 261 40 126q0 4 -4 4l-86 0q-6 0 -6 -4l-50 -166l-176 0q-48 164 -50 166 0 4 -6 4l-86 0q-4 0 -4 -4 10 -18 176 -552 2 -8 10 -8l96 0q10 0 10 8zm-130 316l144 0l-72 -264z"></path></symbol>
    <symbol viewBox="0 0  500 1000" id="location"><path d="M250 100q104 0 177 73t73 177q0 106 -62 243t-126 223l-62 84q-10 -12 -27 -35t-60 -89 -76 -130 -60 -147 -27 -149q0 -104 73 -177t177 -73zm0 388q56 0 96 -40t40 -96 -40 -95 -96 -39 -95 39 -39 95 39 96 95 40z"/></symbol>
    <symbol viewBox="0 0  960 1000" id="linkedin-circled"><path d="M480 20q200 0 340 140t140 340q0 198 -140 339t-340 141q-198 0 -339 -141t-141 -339q0 -200 141 -340t339 -140zm-118 678l0 -312l-96 0l0 312l96 0zm-48 -352q52 0 52 -48t-52 -48q-22 0 -37 14t-15 34q0 48 52 48zm404 352l0 -184q0 -66 -31 -101t-81 -35q-66 0 -96 50l-2 0l-6 -42l-84 0q2 28 2 100l0 212l98 0l0 -180q0 -18 4 -24 12 -38 50 -38 48 0 48 68l0 174l98 0z"></path></symbol>
    <symbol viewBox="0 0  900 1000" id="mail"><path d="M30 264q-32 -18 -28 -40 2 -14 26 -14l846 0q38 0 20 32 -8 14 -24 22 -14 6 -192 102t-182 98q-16 10 -46 10 -28 0 -46 -10 -4 -2 -182 -98t-192 -102zm850 100q20 -10 20 10l0 368q0 16 -17 32t-33 16l-800 0q-16 0 -33 -16t-17 -32l0 -368q0 -20 20 -10l384 200q18 10 46 10t46 -10z"></path></symbol>
    <symbol viewBox="0 0  800 1000" id="phone"><path d="M461.067 560q162 -162 118 -206l-8 -8q-30 -30 -41 -48t-4 -54 49 -88q20 -24 37 -39t35 -16 30 -1 29 13 24 18 26 25 21 22q48 48 -6 194t-204 294q-150 150 -295 205t-193 7q-2 -2 -23 -22t-25 -25 -18 -24 -13 -31 2 -30 15 -35 38 -37q42 -34 70 -47t54 -2 35 18 39 37q44 44 208 -120z"></path></symbol>
    <symbol viewBox="0 0  500 1000" id="play"><path d="M486 474q14 10 14 26 0 14 -14 24l-428 266q-24 16 -41 6t-17 -40l0 -514q0 -30 17 -40t41 6z"/></symbol>
    <symbol viewBox="0 0  340 1000" id="right-open"><path d="M98 224l226 236q16 16 16 40 0 22 -16 38l-226 236q-16 16 -40 16t-40 -16q-36 -36 0 -80l186 -194 -186 -196q-36 -44 0 -80 16 -16 41 -16t39 16z"/></symbol>
    <symbol viewBox="0 0 1000 1000" id="tools"><path d="M154.545 344q-8 8 -11 22t-3 25 -2 11q-2 2 -17 15t-19 17q-16 14 -28 -4l-70 -76q-10 -12 2 -24 2 -2 18 -14t20 -16q6 -6 27 -6t37 -14q14 -14 18 -38t10 -30q2 0 9 -7t26 -22 41 -31q134 -90 186 -96 122 0 148 2 12 0 -8 8 -120 52 -152 76 -80 56 -36 114 34 46 38 48 8 8 -2 14 -2 2 -38 35t-38 35q-14 8 -18 4 -42 -48 -71 -60t-67 12zm286 26l410 476q18 22 -2 38l-48 42q-22 14 -38 -4l-414 -472q-8 -8 0 -20l72 -62q12 -8 20 2zm554 -202q16 104 -16 166 -50 88 -154 62 -56 -12 -100 32l-82 78 -68 -78 68 -70q24 -24 31 -53t6 -65 5 -58q12 -56 140 -112 12 -6 18 3t2 15q-12 12 -46 80 -14 10 -12 35t40 53q58 40 96 -22 6 -12 26 -41t22 -33q4 -10 13 -9t11 17zm-858 684l254 -248 76 86 -246 242q-20 20 -38 4l-46 -46q-22 -18 0 -38z"></path></symbol>
    <symbol viewBox="0 0  900 1000" id="trophy"><path d="M510 716l0 66q70 8 116 32t46 56q0 36 -65 63t-157 27q-90 0 -156 -27t-66 -63q0 -32 46 -56t118 -32l0 -66q0 -50 -33 -84t-113 -88q-56 -36 -87 -61t-75 -72 -64 -108 -20 -137q0 -14 11 -24t25 -10l172 0q48 -92 242 -92 196 0 244 92l170 0q14 0 25 10t11 24q0 76 -20 137t-64 108 -75 72 -87 61q-78 52 -111 87t-33 85zm138 -252q80 -56 126 -114t54 -148l-126 0q-6 158 -54 262zm-198 -364q-62 0 -108 15t-64 32 -18 29q0 14 18 31t64 32 108 15 108 -15 64 -32 18 -31q0 -12 -18 -29t-64 -32 -108 -15zm-378 102q8 90 54 148t126 114q-48 -104 -54 -262l-126 0z"/></symbol>
    <symbol viewBox="0 0  920 1000" id="twitter"><path d="M920 214q-36 54 -94 98l0 24q0 130 -60 250t-186 203 -290 83q-160 0 -290 -84 14 2 46 2 132 0 234 -80 -62 -2 -110 -38t-66 -94q10 4 34 4 26 0 50 -6 -66 -14 -108 -66t-42 -120l0 -2q36 20 84 24 -84 -58 -84 -158 0 -48 26 -94 154 188 390 196 -6 -18 -6 -42 0 -78 55 -133t135 -55q82 0 136 58 60 -12 120 -44 -20 66 -82 104 56 -8 108 -30z"></path></symbol>
    <symbol viewBox="0 0 1000 1000" id="vcard"><path d="M900 100q42 0 71 29t29 71l0 600q0 40 -29 70t-71 30l-800 0q-40 0 -70 -30t-30 -70l0 -600q0 -42 30 -71t70 -29l800 0zm0 700l0 -600l-800 0l0 600l800 0zm-450 -196l0 90l-250 0l0 -90l250 0zm0 -150l0 90l-250 0l0 -90l250 0zm0 -150l0 90l-250 0l0 -90l250 0zm346 320l4 70l-250 0q0 -70 6 -70 84 -22 84 -66 0 -16 -27 -56t-27 -88q0 -110 90 -110t90 110q0 48 -28 88t-28 56q0 20 21 36t43 22z"/></symbol>
  </defs>
</svg>
